<svg id="Layer_1" data-name="Layer 1" xmlns="http://www.w3.org/2000/svg" viewBox="0 0 128 18.17"><defs><style>.cls-1{fill:#dc502e;}</style></defs><path class="cls-1" d="M.44,9.94,1,9.59a.3.3,0,0,1,.29,0L3.78,11a.08.08,0,0,1,0,.15l-.39.23a.29.29,0,0,0,0,.51l5,2.93a.89.89,0,0,0,.89,0l5-2.93a.29.29,0,0,0,0-.51l-5-2.93a.89.89,0,0,0-.89,0l-.16.1a.32.32,0,0,1-.3,0L5.49,7.14a.09.09,0,0,1,0-.15l2.92-1.7a.89.89,0,0,1,.89,0l8,4.65a.88.88,0,0,1,.44.76v1.94a.89.89,0,0,1-.44.76l-8,4.65a.89.89,0,0,1-.89,0l-8-4.65A.89.89,0,0,1,0,12.64V10.7A.88.88,0,0,1,.44,9.94Z"/><path class="cls-1" d="M.44,4.77l8-4.65a.89.89,0,0,1,.89,0l8,4.65a.89.89,0,0,1,.44.76V7.47a.88.88,0,0,1-.44.76l-.58.35a.32.32,0,0,1-.3,0L13.93,7.14a.09.09,0,0,1,0-.15l.39-.23a.29.29,0,0,0,0-.51l-5-2.93a.89.89,0,0,0-.89,0l-5,2.93a.29.29,0,0,0,0,.51l5,2.93a.89.89,0,0,0,.89,0l.16-.1a.32.32,0,0,1,.3,0L12.22,11a.09.09,0,0,1,0,.15L9.3,12.88a.84.84,0,0,1-.89,0l-8-4.65A.88.88,0,0,1,0,7.47V5.54A.89.89,0,0,1,.44,4.77Z"/></svg>